<?xml version="1.0" encoding="UTF-8" standalone="no"?>
<!-- Created with Inkscape (http://www.inkscape.org/) -->

<svg
   version="1.1"
   id="svg59"
   width="45.017548"
   height="59.408844"
   viewBox="0 0 45.017548 59.408843"
   sodipodi:docname="标志蓝色.jpg"
   xmlns:inkscape="http://www.inkscape.org/namespaces/inkscape"
   xmlns:sodipodi="http://sodipodi.sourceforge.net/DTD/sodipodi-0.dtd"
   xmlns="http://www.w3.org/2000/svg"
   xmlns:svg="http://www.w3.org/2000/svg">
  <defs
     id="defs63">
    <clipPath
       clipPathUnits="userSpaceOnUse"
       id="clipPath299">
      <rect
         style="fill:none;stroke-width:11.3386;stroke-dashoffset:113.386"
         id="rect301"
         width="47.547352"
         height="50.618889"
         x="4.2566071"
         y="27.392872"
         ry="1.1905522" />
    </clipPath>
  </defs>
  <sodipodi:namedview
     id="namedview61"
     pagecolor="#ffffff"
     bordercolor="#666666"
     borderopacity="1.0"
     inkscape:showpageshadow="2"
     inkscape:pageopacity="0.0"
     inkscape:pagecheckerboard="0"
     inkscape:deskcolor="#d1d1d1"
     showgrid="false"
     inkscape:lockguides="false" />
  <g
     inkscape:groupmode="layer"
     inkscape:label="Image"
     id="g65"
     transform="translate(-18.731033,-12.309615)">
    <path
       id="path177"
       clip-path="url(#clipPath299)"
       style="fill:#5fd38d;stroke-width:0.32"
       d="m 105.76415,13.683888 c -0.12677,-0.126773 -0.23047,0.370194 -0.23047,1.103515 0,1.318292 -0.0127,1.332183 -1.19921,1.382813 l -1.19922,0.05273 1.07617,0.13086 1.07812,0.132812 -0.91796,1.015625 c -0.77985,0.86314 -0.79318,0.907709 -0.0957,0.296875 1.02907,-0.90138 1.24814,-0.902384 1.30274,0 l 0.043,0.720703 0.13867,-0.720703 c 0.16557,-0.85964 0.33734,-0.888113 1.10937,-0.189453 0.33183,0.300303 0.58399,0.373703 0.58399,0.169922 0,-0.197657 -0.39491,-0.573364 -0.87891,-0.835938 l -0.88086,-0.478515 1.21875,-0.01172 c 0.67039,-0.007 1.14529,-0.134595 1.05469,-0.28125 -0.0906,-0.146651 -0.61487,-0.200031 -1.16602,-0.119141 -0.97709,0.143405 -1.00029,0.118614 -0.90429,-0.996093 0.0542,-0.628796 -0.006,-1.246286 -0.13282,-1.373047 z m 3.79883,0.08984 c -0.30864,-0.118436 -0.54959,0.248278 -0.79101,1.207032 -0.19062,0.756978 -0.4307,1.647868 -0.53516,1.978515 -0.17547,0.555437 -0.16273,0.558328 0.16992,0.04102 0.21527,-0.334804 0.75657,-0.560547 1.34766,-0.560547 h 0.98828 l -0.18945,1.607422 c -0.2589,2.186003 -0.56398,2.595286 -1.06446,1.421875 -0.46854,-1.098531 -0.58288,-0.580253 -0.13281,0.603516 0.2515,0.661484 0.1589,0.942563 -0.55859,1.675781 -0.83407,0.852347 -0.42603,0.801069 0.60156,-0.07617 0.43236,-0.369117 0.61237,-0.317766 1.25586,0.367187 0.81525,0.867796 1.13387,0.974909 1.43945,0.480469 0.10878,-0.176 -0.005,-0.320312 -0.25195,-0.320312 -0.2471,0 -0.7012,-0.278176 -1.00977,-0.619141 -0.45983,-0.508099 -0.50229,-0.81085 -0.23633,-1.679687 0.17847,-0.583035 0.4146,-1.601732 0.5254,-2.261719 0.12496,-0.744399 0.3792,-1.199219 0.66796,-1.199219 0.25603,0 0.46485,-0.123286 0.46485,-0.273437 0,-0.150167 -0.71961,-0.203701 -1.59961,-0.119141 -1.75525,0.168658 -2.01263,-0.156577 -1.125,-1.423828 0.39963,-0.570607 0.40568,-0.706674 0.0332,-0.84961 z m 6.8711,0.08203 c -0.1603,0.01184 -0.36239,0.443853 -1.08008,2.035156 -0.4592,1.01808 -0.6964,1.764637 -0.52735,1.660156 0.18786,-0.116098 0.3086,0.937315 0.3086,2.708985 0,1.719231 0.12858,2.90039 0.31836,2.90039 0.19403,0 0.32031,-1.393208 0.32031,-3.537109 0,-2.590746 0.13492,-3.796235 0.50391,-4.509766 0.277,-0.535602 0.42129,-1.055272 0.32031,-1.15625 -0.062,-0.06196 -0.11063,-0.10551 -0.16406,-0.101562 z m 3.15039,0.02344 c -0.15953,0 -0.28907,0.288625 -0.28907,0.640625 0,0.530838 -0.23341,0.648943 -1.36132,0.695313 l -1.35938,0.05664 1.35938,0.123047 c 1.09108,0.09828 1.36132,0.245394 1.36132,0.744141 0,0.341868 0.12954,0.621093 0.28907,0.621094 0.15957,0 0.21514,-0.288638 0.12304,-0.640625 -0.15126,-0.57842 -0.011,-0.640625 1.46875,-0.640625 0.90053,-1e-6 1.63867,-0.121321 1.63867,-0.271485 0,-0.150169 -0.74333,-0.202394 -1.65039,-0.115234 -1.56133,0.150031 -1.63845,0.121594 -1.46875,-0.527344 0.0986,-0.376992 0.0482,-0.685547 -0.11132,-0.685547 z m -12.05664,0.320313 c -0.17872,0 -0.40846,0.216481 -0.50977,0.480468 -0.1013,0.264 -0.13281,0.480469 -0.0723,0.480469 0.0609,0 0.28872,-0.216469 0.50782,-0.480469 0.2296,-0.276657 0.26176,-0.480468 0.0742,-0.480468 z m -3.27735,0.320312 c -0.1407,0 -0.18182,0.286698 -0.0898,0.636719 0.0915,0.35002 0.28724,0.56041 0.43554,0.46875 0.31497,-0.194661 0.0303,-1.105469 -0.3457,-1.105469 z m -12.062498,0.320313 0.80664,1.679687 c 0.974067,2.029849 1.31781,4.654342 0.664063,5.06836 -0.30187,0.191157 -0.08572,0.275568 0.675781,0.261718 0.615987,-0.0112 0.940703,-0.09287 0.720703,-0.18164 -0.22,-0.08877 -0.400301,-0.690617 -0.400391,-1.335938 -9e-5,-0.64532 -0.29533,-1.948855 -0.65625,-2.898437 -0.360907,-0.949582 -0.581734,-1.921752 -0.490234,-2.160157 0.1105,-0.287931 -0.08244,-0.433593 -0.576172,-0.433593 z m 3.816406,0 c -0.49584,0 -0.608886,0.15382 -0.478516,0.652343 0.09388,0.358981 0.193203,0.611527 0.220703,0.560547 0.02745,-0.05098 0.242776,-0.344356 0.478516,-0.652343 0.37519,-0.49017 0.347554,-0.560547 -0.220703,-0.560547 z m 2.970703,0 -0.800781,0.02539 c -0.44,0.01389 -0.620391,0.09678 -0.400391,0.185547 0.28194,0.113765 0.400391,1.090702 0.400391,3.308594 0,2.217892 -0.118451,3.194829 -0.400391,3.308594 -0.22,0.08877 -0.03961,0.171657 0.400391,0.185547 l 0.800781,0.02539 v -3.519531 z m 73.212889,0 0.80664,1.679687 c 0.97407,2.029849 1.31782,4.654346 0.66406,5.06836 -0.30174,0.191157 -0.0857,0.275568 0.67579,0.261718 0.616,-0.0112 0.9407,-0.09287 0.7207,-0.18164 -0.22,-0.08877 -0.4003,-0.690617 -0.40039,-1.335938 -8e-5,-0.64532 -0.29532,-1.948855 -0.65625,-2.898437 -0.36091,-0.949582 -0.58174,-1.921752 -0.49024,-2.160157 0.1105,-0.287931 -0.0824,-0.433593 -0.57617,-0.433593 z m 3.81641,0 c -0.49584,0 -0.60888,0.15382 -0.47852,0.652343 0.0939,0.358981 0.19321,0.611527 0.22071,0.560547 0.0274,-0.05098 0.24276,-0.344356 0.47851,-0.652343 0.37518,-0.49017 0.34757,-0.560547 -0.2207,-0.560547 z m 9.05078,0 c -1.306,0 -1.75977,0.116364 -1.75977,0.453125 0,0.249592 -0.0765,0.718633 -0.16992,1.041015 -0.10195,0.351754 -0.0183,0.297284 0.20899,-0.134765 0.31332,-0.595541 0.64671,-0.720703 1.92968,-0.720703 0.85311,-1e-6 1.55078,-0.14236 1.55078,-0.31836 0,-0.176 -0.79176,-0.320312 -1.75976,-0.320312 z m 4.47851,0 -0.79882,0.02539 c -0.44,0.01389 -0.62039,0.09678 -0.40039,0.185547 0.28193,0.113765 0.40039,1.090702 0.40039,3.308594 0,2.217892 -0.11846,3.194829 -0.40039,3.308594 -0.22,0.08877 -0.0396,0.171657 0.40039,0.185547 l 0.79882,0.02539 v -3.519531 z m -25.74414,0.0098 c -0.37503,0.02418 -0.78879,0.183025 -1.22461,0.488282 -0.55191,0.38665 -0.71093,0.813304 -0.71093,1.908203 0,1.47397 0.55342,2.096964 1.82031,2.052734 0.46903,-0.01637 0.44073,-0.07615 -0.14258,-0.310547 -1.09347,-0.439384 -1.52428,-1.63381 -0.99023,-2.748047 0.48802,-1.018214 1.34576,-1.331526 2.04883,-0.748047 0.5693,0.472607 0.61284,2.579766 0.0644,3.169922 -0.32,0.344757 -0.32,0.385743 0,0.205078 0.58414,-0.329754 0.5138,1.108189 -0.0977,1.980469 -0.56334,0.804264 -1.74219,0.961912 -1.74219,0.232422 0,-0.264 -0.14431,-0.480469 -0.32031,-0.480469 -0.46059,0 -0.3951,0.876715 0.0801,1.06836 1.85104,0.746895 3.11914,-0.788612 3.11914,-3.773438 0,-1.984561 -0.77918,-3.117446 -1.9043,-3.044922 z m -15.90429,0.01172 c -1.09406,-0.107747 -2.03125,1.294155 -2.03125,3.498047 0,1.37054 0.16834,2.047549 0.66406,2.677734 0.36477,0.463735 0.9352,0.841797 1.26758,0.841797 2.01357,0 2.888,-4.587051 1.21679,-6.380859 -0.37051,-0.397828 -0.7525,-0.600803 -1.11718,-0.636719 z m 5.12109,0 c -1.09405,-0.107747 -2.03125,1.294155 -2.03125,3.498047 0,1.37054 0.16639,2.047549 0.66211,2.677734 0.36477,0.463735 0.9352,0.841797 1.26758,0.841797 2.01357,0 2.88996,-4.587051 1.21875,-6.380859 -0.37064,-0.397828 -0.7525,-0.600803 -1.11719,-0.636719 z m 16,0 c -1.09405,-0.107747 -2.03125,1.294155 -2.03125,3.498047 0,1.37054 0.1664,2.047549 0.66211,2.677734 0.36477,0.463735 0.93521,0.841797 1.26758,0.841797 2.01357,0 2.88996,-4.587051 1.21875,-6.380859 -0.37064,-0.397828 -0.7525,-0.600803 -1.11719,-0.636719 z m -78.078124,0.0039 c -0.688967,-0.02538 -1.077359,0.52718 -1.068359,1.519532 0.0042,0.461591 0.04622,0.469708 0.314453,0.05469 0.214497,-0.331929 0.311453,0.314379 0.314453,2.095703 0.003,1.58312 -0.142919,2.724943 -0.378906,2.960938 -0.29866,0.298654 -0.173661,0.377059 0.560546,0.357422 0.5192,-0.01389 0.764922,-0.09678 0.544922,-0.185547 -0.281927,-0.113765 -0.40039,-1.090702 -0.40039,-3.308594 0,-2.217892 0.118463,-3.194829 0.40039,-3.308594 0.22,-0.08877 0.09006,-0.171657 -0.287109,-0.185547 z m 10.376954,0 c -0.58097,-0.01687 -0.81759,0.109959 -0.71289,0.382813 0.0862,0.224717 -0.18997,0.877402 -0.613283,1.451172 l -0.769531,1.042968 0.964844,1.783204 c 0.78505,1.449416 0.88344,1.836459 0.52344,2.064453 -0.30019,0.190106 -0.0835,0.273575 0.67578,0.259765 0.61601,-0.0112 0.93671,-0.09485 0.71094,-0.185547 -0.22577,-0.0907 -0.83487,-1.100302 -1.35352,-2.24414 L 99.787591,17.340138 100.604,16.267872 c 0.44943,-0.589216 0.98637,-1.140169 1.19336,-1.224609 0.20699,-0.08443 -0.0137,-0.163845 -0.49219,-0.177735 z m 59.06445,0 c -0.68897,-0.02538 -1.07931,0.52718 -1.07031,1.519532 0.004,0.461591 0.0462,0.469708 0.31445,0.05469 0.21451,-0.331929 0.31341,0.314379 0.31641,2.095703 0.003,1.58312 -0.14291,2.724943 -0.37891,2.960938 -0.29866,0.298654 -0.17562,0.377059 0.5586,0.357422 0.5192,-0.01389 0.76492,-0.09678 0.54492,-0.185547 -0.28193,-0.113765 -0.40039,-1.090702 -0.40039,-3.308594 0,-2.217892 0.11846,-3.194829 0.40039,-3.308594 0.22,-0.08877 0.092,-0.171657 -0.28516,-0.185547 z m 31.49414,0 c -0.58098,-0.01687 -0.8176,0.109959 -0.71289,0.382813 0.0862,0.224717 -0.18997,0.877402 -0.61328,1.451172 l -0.76953,1.042968 0.9668,1.783204 c 0.78505,1.449416 0.88148,1.836459 0.52148,2.064453 -0.30019,0.190106 -0.0815,0.273575 0.67774,0.259765 0.61588,-0.0112 0.93475,-0.09485 0.70898,-0.185547 -0.22578,-0.0907 -0.83487,-1.100302 -1.35352,-2.24414 l -0.9414,-2.080078 0.8164,-1.072266 c 0.44943,-0.589216 0.98637,-1.140169 1.19336,-1.224609 0.20699,-0.08443 -0.0157,-0.163845 -0.49414,-0.177735 z m -12.30859,0.0059 c -0.39569,0.02172 -0.32606,0.102361 0.21875,0.253906 0.65432,0.182007 0.80078,0.423802 0.80078,1.320312 0,0.847935 -0.18192,1.186921 -0.80078,1.5 -0.7159,0.362181 -0.72962,0.405957 -0.14258,0.410157 0.3608,0.0026 0.82786,0.177472 1.03906,0.388672 0.52928,0.529288 0.48236,2.015123 -0.0781,2.480468 -0.61318,0.508892 -1.93536,0.301745 -1.94336,-0.304687 -0.007,-0.548399 -0.56636,-0.843857 -0.7207,-0.38086 -0.0563,0.168771 0.12963,0.53979 0.41406,0.824219 1.1381,1.138095 3.35156,0.210193 3.35156,-1.404297 0,-0.564263 -0.25125,-1.100122 -0.64648,-1.376953 -0.57143,-0.400234 -0.59028,-0.500457 -0.16016,-0.857422 1.18143,-0.980484 0.26607,-2.941245 -1.33203,-2.853515 z m 16.25,0 -0.83008,0.03125 0.76953,0.216797 c 1.84009,0.514879 1.68178,2.081104 -0.44726,4.449218 -0.79398,0.88308 -1.44336,1.764845 -1.44336,1.958985 0,0.218078 0.73365,0.351562 1.91992,0.351562 1.76484,0 1.91992,-0.05602 1.91992,-0.703125 0,-0.547543 -0.0841,-0.618979 -0.38281,-0.320312 -0.2112,0.211187 -1.02501,0.384765 -1.8086,0.384765 h -1.42578 l 1.8086,-1.896484 c 1.09831,-1.151455 1.80859,-2.178912 1.80859,-2.615234 0,-1.005475 -0.90405,-1.895242 -1.88867,-1.857422 z m -108.658204,0.01758 c -0.214914,0.214131 -0.332031,1.378911 -0.332031,3.470703 0,2.132806 0.126422,3.521036 0.320312,3.521484 0.19238,4.52e-4 0.295566,-1.053325 0.259766,-2.640625 l -0.06055,-2.640625 0.650391,2.664063 c 0.356947,1.465136 0.687275,2.617707 0.734375,2.560547 0.04707,-0.05716 0.182924,-0.512986 0.302734,-1.011719 0.14289,-0.594779 0.103053,-0.836089 -0.115234,-0.701172 -0.18305,0.113134 -0.332032,-0.0011 -0.332032,-0.253906 0,-0.252798 -0.232525,-1.484718 -0.515625,-2.738281 -0.385612,-1.707583 -0.697196,-2.444601 -0.912109,-2.230469 z m 69.441404,0 c -0.21491,0.214131 -0.33398,1.378911 -0.33398,3.470703 0,2.132806 0.12642,3.521036 0.32031,3.521484 0.19239,4.52e-4 0.29557,-1.053325 0.25977,-2.640625 l -0.0586,-2.640625 0.64844,2.664063 c 0.35696,1.465136 0.68727,2.617707 0.73437,2.560547 0.0471,-0.05716 0.18292,-0.512986 0.30274,-1.011719 0.14288,-0.594779 0.10502,-0.836089 -0.11328,-0.701172 -0.18305,0.113134 -0.33399,-0.0011 -0.33399,-0.253906 0,-0.252798 -0.23057,-1.484718 -0.51367,-2.738281 -0.38562,-1.707583 -0.69719,-2.444601 -0.91211,-2.230469 z M 83.689935,14.9417 c -0.669631,0.162003 -1.333103,0.788228 -1.703125,1.673828 -0.57593,1.378474 -0.572043,2.436868 0.01172,3.833985 0.25502,0.610334 0.607204,1.109375 0.783204,1.109375 0.181517,0 0.104475,-0.514024 -0.177735,-1.189453 -0.922037,-2.206763 -0.0121,-5.155774 1.619141,-5.246094 0.515207,-0.02853 0.546386,-0.07166 0.128906,-0.181641 -0.2141,-0.0564 -0.438911,-0.054 -0.662109,0 z m 53.119145,0 c -0.66963,0.162003 -1.33114,0.788228 -1.70118,1.673828 -0.57593,1.378474 -0.57674,2.436868 0.01,3.833985 0.25503,0.610334 0.6072,1.109375 0.7832,1.109375 0.18153,0 0.10643,-0.514024 -0.17578,-1.189453 -0.92205,-2.206763 -0.0121,-5.155774 1.61914,-5.246094 0.51522,-0.02853 0.54443,-0.07166 0.12695,-0.181641 -0.2141,-0.0564 -0.43889,-0.054 -0.6621,0 z m -51.427739,0.21875 c -0.21056,0 -0.188578,0.22915 0.05859,0.625 0.441487,0.706986 0.752843,0.617696 0.464843,-0.132812 -0.104207,-0.27159 -0.340417,-0.492188 -0.523437,-0.492188 z m 53.121089,0 c -0.21066,0 -0.18997,0.22915 0.0566,0.625 0.44137,0.706986 0.75284,0.617696 0.46484,-0.132812 -0.10422,-0.27159 -0.33848,-0.492188 -0.52149,-0.492188 z m 9.34961,0.03711 c 0.10911,-0.0087 0.22111,0.0087 0.33594,0.05273 1.10452,0.42383 1.42386,4.032513 0.50781,5.744141 -0.84146,1.572252 -2.20117,-0.07663 -2.20117,-2.669922 0,-1.767694 0.5937,-3.066283 1.35742,-3.126953 z m 5.11914,0 c 0.10911,-0.0087 0.22111,0.0087 0.33594,0.05273 1.10452,0.42383 1.42386,4.032513 0.50781,5.744141 -0.84133,1.572252 -2.20117,-0.07663 -2.20117,-2.669922 0,-1.767694 0.5937,-3.066283 1.35742,-3.126953 z m 16,0 c 0.10911,-0.0087 0.22111,0.0087 0.33594,0.05273 1.10452,0.42383 1.42386,4.032513 0.50781,5.744141 -0.84133,1.572252 -2.20117,-0.07663 -2.20117,-2.669922 0,-1.767694 0.59371,-3.066283 1.35742,-3.126953 z m -26.3164,0.05078 -0.86328,0.166015 c -0.835,0.159621 -0.84045,0.172175 -0.16016,0.423829 0.6371,0.235676 0.70322,0.48138 0.69922,2.591796 -0.005,2.422841 -0.15181,2.910291 -0.95703,3.216797 -0.264,0.100498 0.24109,0.1847 1.12109,0.1875 1.26829,0.0039 1.44964,-0.05575 0.87891,-0.285156 -0.675,-0.271328 -0.71875,-0.476776 -0.71875,-3.294922 z m 35.99023,0.0039 c -0.0491,-0.01412 -0.15277,0.119483 -0.34961,0.388672 -0.23093,0.315704 -0.33828,0.705419 -0.23828,0.867187 0.25474,0.412184 0.54802,0.04437 0.60742,-0.761718 0.0235,-0.319059 0.0295,-0.480024 -0.0195,-0.494141 z m 15.93555,0.183594 c -0.0686,-0.07245 -0.18014,0.003 -0.36914,0.191406 -0.24405,0.243298 -0.35654,0.669619 -0.25,0.947266 0.32132,0.837312 0.76286,0.569088 0.72656,-0.441407 -0.0145,-0.403414 -0.0388,-0.624815 -0.10742,-0.697265 z m -73.04688,1.003906 c -0.176,0 -0.31835,0.360794 -0.31835,0.800781 0,0.74523 -0.10942,0.798828 -1.58008,0.798828 -1.47662,0 -1.58625,-0.05583 -1.71094,-0.878906 -0.0733,-0.483987 -0.12814,0.630542 -0.11914,2.478516 0.0113,2.428023 0.0472,2.717521 0.12695,1.041015 l 0.11133,-2.320312 h 1.58594 1.58594 v 2.240234 c 0,1.279987 0.1355,2.240235 0.31835,2.240235 0.192,0 0.32032,-1.281198 0.32032,-3.201172 0,-1.919974 -0.12832,-3.199219 -0.32032,-3.199219 z m -26.019527,0.07422 c -0.05622,0.029 -0.133445,0.114094 -0.21875,0.246094 -0.170597,0.263987 -0.310546,0.622828 -0.310546,0.798828 0,0.175987 0.139949,0.105784 0.310546,-0.158203 0.17061,-0.264 0.308594,-0.624782 0.308594,-0.800782 0,-0.088 -0.03362,-0.114901 -0.08984,-0.08594 z m 79.999997,0 c -0.0562,0.029 -0.13344,0.114094 -0.21875,0.246094 -0.17061,0.263987 -0.31054,0.622828 -0.31054,0.798828 0,0.175987 0.13993,0.105784 0.31054,-0.158203 0.17062,-0.264 0.3086,-0.624782 0.3086,-0.800782 0,-0.088 -0.0336,-0.114901 -0.0899,-0.08594 z m 10.34961,0.08008 c -0.42806,0.264551 -1.60937,3.584591 -1.60937,4.523437 0,1.481564 0.79584,0.630285 0.86914,-0.929687 0.0383,-0.813585 0.28533,-1.994373 0.54883,-2.625 0.26348,-0.630627 0.34974,-1.06662 0.1914,-0.96875 z m -54.09961,0.5625 c -0.37937,0.01087 -0.73364,0.455289 -0.48632,0.855469 0.11825,0.191322 0.34087,0.347656 0.49609,0.347656 0.49427,0 0.72668,-0.683492 0.35742,-1.052734 -0.11036,-0.110361 -0.24073,-0.154013 -0.36719,-0.150391 z m -42.140622,0.04492 c -0.03364,0.03364 -0.05675,0.145641 -0.06445,0.332031 -0.01389,0.33733 0.06164,0.526256 0.167969,0.419922 0.1063,-0.106333 0.117803,-0.382294 0.02539,-0.613281 -0.05107,-0.127638 -0.09527,-0.172317 -0.128907,-0.138672 z m 69.439452,0 c -0.0336,0.03364 -0.0548,0.145641 -0.0625,0.332031 -0.0139,0.33733 0.0616,0.526256 0.16797,0.419922 0.1063,-0.106333 0.11767,-0.382294 0.0254,-0.613281 -0.0511,-0.127638 -0.0972,-0.172317 -0.13086,-0.138672 z m -50.23047,0.07031 c -0.0293,0.0725 -0.0469,0.227266 -0.0469,0.447266 0,0.439987 0.0713,0.620378 0.16015,0.400391 0.0888,-0.22 0.0888,-0.578829 0,-0.798829 -0.0444,-0.11 -0.084,-0.121304 -0.11328,-0.04883 z m -19.529294,1.208985 c -0.03364,0.03364 -0.0548,0.145641 -0.0625,0.332031 -0.01389,0.33733 0.06164,0.526256 0.167969,0.419922 0.1063,-0.106333 0.115801,-0.382294 0.02344,-0.613281 -0.05107,-0.127638 -0.09527,-0.172317 -0.128906,-0.138672 z m 69.441404,0 c -0.0336,0.03364 -0.0567,0.145641 -0.0644,0.332031 -0.0139,0.33733 0.0616,0.526256 0.16797,0.419922 0.1063,-0.106333 0.11767,-0.382294 0.0254,-0.613281 -0.0511,-0.127638 -0.0953,-0.172317 -0.12891,-0.138672 z m -53.125,0.199218 c -0.15807,0 -0.52656,0.503154 -0.82031,1.119141 -0.29374,0.615987 -0.41637,1.121094 -0.27148,1.121094 0.22304,0 0.50937,-0.45188 1.26367,-2 0.0643,-0.132 -0.0138,-0.240235 -0.17188,-0.240235 z m 1.7168,0.640625 c -0.24898,0 -0.54387,0.358829 -0.6543,0.798829 -0.13853,0.551907 -0.42154,0.801287 -0.91406,0.804687 -0.53848,0.0037 -0.60287,0.07545 -0.26563,0.289063 0.33978,0.215127 0.14674,0.441728 -0.80078,0.941406 -0.686,0.361752 -1.12274,0.664075 -0.9707,0.671875 0.15203,0.0078 0.8297,-0.29771 1.50586,-0.677735 1.02674,-0.577044 1.31129,-0.621327 1.73047,-0.273437 0.27606,0.229107 0.59604,0.321929 0.71094,0.207031 0.11489,-0.114899 -0.0593,-0.405639 -0.38868,-0.646484 -0.57052,-0.417148 -0.5741,-0.478309 -0.0508,-1.277344 0.44386,-0.677418 0.46278,-0.837891 0.0977,-0.837891 z m -21.382813,0.791016 c -0.09852,-0.09852 -0.278268,0.07894 -0.398438,0.394531 -0.17366,0.456063 -0.136352,0.493361 0.179688,0.179688 0.218687,-0.217066 0.317237,-0.475699 0.21875,-0.574219 z m 53.119143,0 c -0.0985,-0.09852 -0.27827,0.07894 -0.39844,0.394531 -0.17366,0.456063 -0.13635,0.493361 0.17969,0.179688 0.2187,-0.217066 0.31725,-0.475699 0.21875,-0.574219 z m -7.3086,0.564453 c -0.37937,0.01087 -0.73364,0.455289 -0.48632,0.855469 0.11825,0.191335 0.34087,0.347656 0.49609,0.347656 0.49427,0 0.72668,-0.681526 0.35742,-1.050781 -0.11036,-0.110361 -0.24073,-0.155966 -0.36719,-0.152344 z m -47.011715,0.78125 c -0.112578,-0.02224 -0.290478,-0.01615 -0.507813,0.02539 -0.434667,0.08309 -0.791015,0.205957 -0.791015,0.273437 0,0.2476 1.248249,0.114737 1.412109,-0.15039 0.04653,-0.07529 -7.04e-4,-0.126212 -0.113281,-0.148437 z m 53.121095,0 c -0.11258,-0.02224 -0.29048,-0.01615 -0.50781,0.02539 -0.43467,0.08309 -0.79102,0.205957 -0.79102,0.273437 0,0.2476 1.24825,0.114737 1.41211,-0.15039 0.0465,-0.07529 -7e-4,-0.126212 -0.11328,-0.148437 z M 56.281732,32.978809 c 0.04394,0.137837 0.0918,0.293705 0.138671,0.464844 0.591386,0.347456 1.315481,0.993092 1.695313,1.556641 0.620186,0.920147 0.730847,1.420846 0.619141,2.8125 -0.07628,0.950179 -0.02034,1.513429 0.126953,1.28125 0.421971,-0.665164 0.312811,-2.769361 -0.195313,-3.751953 -0.450708,-0.871584 -1.567446,-1.927823 -2.384765,-2.363282 z m -22.564454,2.914063 c -0.677695,-0.05289 -1.4698,-0.02502 -2.347656,0.09766 -6.774626,0.946698 -10.115633,3.866974 -11.296875,9.871094 -0.361155,1.83577 -0.324954,3.341435 0.210938,8.701172 l 0.21289,2.123047 -0.800781,-0.152344 c -0.439882,-0.08409 -1.258178,0.0843 -1.820312,0.375 l -1.023438,0.529297 1.541016,1.175781 c 2.016844,1.539677 2.814376,2.446607 3.863281,4.386719 0.73791,1.364889 0.865794,1.985279 0.871094,4.230469 0.0049,2.064275 0.109852,2.660987 0.486328,2.763671 0.97593,0.266221 1.18493,0.187812 1.53125,-0.572265 0.194752,-0.42743 1.191402,-1.390046 2.21289,-2.140625 2.82407,-2.075107 2.833873,-2.107204 1.189454,-3.865235 -1.27694,-1.365142 -1.41211,-1.660697 -1.41211,-3.097656 0,-1.972605 1.249039,-3.772588 3.853516,-5.552734 3.429576,-2.344125 8.914788,-2.880985 11.396484,-1.115235 0.675075,0.48032 1.275425,0.730355 1.333985,0.554688 0.183776,-0.55135 -0.631622,-2.681308 -1.441407,-3.765625 l -0.77539,-1.039063 h -3.673828 c -2.98407,0 -3.708501,-0.09117 -3.859375,-0.484375 -0.102166,-0.26623 0.0054,-0.717005 0.240234,-1 0.361808,-0.435942 0.88117,-0.479561 3.396484,-0.294921 3.315488,0.24336 3.383504,0.191565 2.517578,-1.88086 -0.500211,-1.197208 -1.448501,-1.665626 -2.371093,-1.171875 -0.333011,0.17822 -1.545842,0.421095 -2.697266,0.539063 -1.902972,0.194966 -2.127349,0.154413 -2.447266,-0.44336 -0.832557,-1.555641 0.473397,-2.343174 3.439454,-2.074218 l 1.966796,0.177734 v -0.992188 c 0,-1.435641 -0.662909,-1.659558 -3.720703,-1.255859 -2.906099,0.383686 -3.638672,0.238104 -3.638672,-0.71875 0,-0.912423 1.277212,-1.325372 3.347657,-1.082031 1.521961,0.17888 1.745496,0.128431 2.070312,-0.478516 0.693626,-1.29603 -0.322369,-2.188998 -2.355469,-2.347656 z m 8.580079,0.488281 c 0.04657,0.08152 0.09366,0.16314 0.138671,0.25 0.01388,-0.02513 0.03019,-0.04915 0.04883,-0.07226 -0.06154,-0.06036 -0.125279,-0.118135 -0.1875,-0.177735 z m 16.357421,3.257813 -1.11914,0.960937 c -0.49552,0.425337 -0.808307,0.680945 -1.007813,0.837891 -0.01818,0.09171 -0.03663,0.184205 -0.05664,0.27539 0.178257,-0.009 0.732266,-0.466782 1.24414,-1.033203 z m 31.519532,4.960937 c -0.879987,0 -1.59961,0.144313 -1.59961,0.320313 0,0.193939 -1.386217,0.320312 -3.519531,0.320312 h -3.521484 v 0.958985 0.960937 h 3.521484 3.519531 v 0.798828 0.800781 h -3.359375 -3.361328 v 6.878907 c 0,3.783948 0.0699,6.880859 0.154297,6.880859 0.08443,0 0.731896,-0.232514 1.439453,-0.515625 l 1.28711,-0.513672 v -5.40625 -5.404297 h 5.439453 5.439453 v 4.958985 4.960937 h -1.119141 c -1.031087,0 -1.121094,0.07518 -1.121094,0.958985 0,0.917917 0.06034,0.960937 1.376954,0.960937 1.035097,0 1.711106,-0.245817 2.720703,-0.988281 l 1.34375,-0.986328 v -5.892578 -5.892579 h -3.519532 -3.521484 v -0.800781 c 0,-0.799849 2.18e-4,-0.798828 3.191406,-0.798828 h 3.19336 l 0.496093,-0.960937 0.496094,-0.958985 h -3.6875 c -2.245454,0 -3.689453,-0.12549 -3.689453,-0.320312 0,-0.176 -0.719622,-0.320313 -1.599609,-0.320313 z m 18.56055,0 v 2.867188 2.867187 l 1.35937,-0.578125 1.35938,-0.576172 0.0957,-2.289062 0.0937,-2.291016 h -1.45508 z m 37.39453,0 c -1.446,0 -1.55469,0.05716 -1.55469,0.800781 0,0.74667 -0.10627,0.798829 -1.59961,0.798829 h -1.60156 v 1.121093 c 0,1.093327 0.0317,1.119141 1.28125,1.119141 1.5642,0 1.53441,-0.450429 0.47851,7.314453 -0.43933,3.230793 -0.79882,6.003001 -0.79882,6.160156 0,0.157168 0.69489,0.285157 1.54492,0.285157 h 1.54687 l 0.70899,-5.839844 c 1.06029,-8.726885 0.7915,-7.919922 2.63476,-7.919922 h 1.56446 v 4.044922 c 0,3.931135 -0.0268,4.087862 -0.95704,5.599609 l -0.95703,1.554688 h 0.95703 c 0.92094,0 0.95704,0.05573 0.95704,1.441406 v 1.439453 h 3.78125 3.78125 l 0.5332,-1.119141 0.53516,-1.121093 h -2.71485 -2.71484 v -1.763672 c 0,-1.592835 0.16968,-2.025237 1.75976,-4.490235 0.968,-1.500496 1.75977,-2.80809 1.75977,-2.90625 0,-0.09816 -0.79348,-0.128637 -1.76172,-0.06836 l -1.75977,0.109375 v -1.361328 -1.359375 h 2.18946 c 2.03479,0 2.21541,-0.05669 2.56054,-0.814453 0.51716,-1.135021 0.46592,-1.425781 -0.24804,-1.425781 -0.34014,0 -0.70858,-0.288638 -0.82031,-0.640625 -0.16626,-0.523843 -0.48453,-0.638672 -1.75196,-0.638672 -1.39112,0 -1.53119,0.06379 -1.38086,0.638672 0.15969,0.610647 0.009,0.640625 -3.26758,0.640625 h -3.43554 l 0.15429,-0.798829 c 0.14617,-0.764577 0.0825,-0.800793 -1.40429,-0.80078 z m 19.40429,0 c -1.22653,0 -1.43945,0.09544 -1.43945,0.640625 0,0.54518 -0.21278,0.638672 -1.43945,0.638672 -1.3867,0 -1.43945,0.03649 -1.43945,0.960938 0,0.924427 0.0528,0.958984 1.43945,0.958984 h 1.43945 v 1.28125 1.279297 h -1.43945 c -1.3867,0 -1.43945,0.03649 -1.43945,0.960937 v 0.958985 h 1.91992 1.91992 v 3.359375 c 0,2.02664 -0.12729,3.361328 -0.32031,3.361328 -0.18666,0 -0.32032,-1.067226 -0.32032,-2.560547 V 53.8792 h -1.43945 -1.44141 v 4.460938 4.460937 l 1.44141,-0.490234 c 0.792,-0.269862 1.43945,-0.692265 1.43945,-0.9375 0,-0.339683 0.42769,-0.256759 1.79883,0.349609 1.67605,0.741212 2.15823,0.796875 6.99024,0.796875 h 5.1875 l 0.37109,-0.814453 c 0.20425,-0.448282 0.37305,-0.881218 0.37305,-0.960938 0,-0.07971 -2.29228,-0.144531 -5.09375,-0.144531 -2.80161,0 -5.32318,-0.08848 -5.60157,-0.195312 -0.37485,-0.143894 -0.50585,-0.641461 -0.50585,-1.919922 0,-1.441593 0.0943,-1.72461 0.57031,-1.72461 0.3393,1e-6 0.71588,-0.389337 0.93164,-0.960937 0.351,-0.929877 0.33461,-0.958984 -0.56836,-0.958984 -0.87421,0 -0.93359,-0.08085 -0.93359,-1.28125 0,-1.059014 0.1087,-1.279297 0.6289,-1.279297 0.59836,0 1.29102,-0.846455 1.29102,-1.578125 0,-0.190858 -0.63357,-0.341797 -1.43946,-0.341797 h -1.43945 v -1.279297 c 0,-1.206417 0.0541,-1.28125 0.95117,-1.28125 0.73388,0 1.06449,-0.218776 1.44727,-0.958984 l 0.49805,-0.960938 h -1.44922 c -1.23488,0 -1.44727,-0.09295 -1.44727,-0.638672 0,-0.545167 -0.21474,-0.640625 -1.44141,-0.640625 z m 81.47461,0 c -1.28267,0 -1.68027,0.130801 -1.95312,0.640625 -0.28375,0.530189 -0.67085,0.638672 -2.25195,0.638672 -1.90774,0 -1.90821,0.0016 -1.90821,0.960938 0,0.909917 0.0681,0.958984 1.30664,0.958984 0.71867,0 1.25737,0.108247 1.19727,0.240234 -0.0601,0.132 -0.64978,1.284573 -1.31055,2.560547 -1.10828,2.140176 -1.1527,2.320313 -0.55859,2.320313 0.61783,0 0.64453,0.202902 0.64453,4.99414 h 0.002 c 0,3.86149 0.0892,4.960919 0.39844,4.845703 0.22,-0.08195 0.94156,-0.343851 1.60156,-0.580078 1.134,-0.405866 1.19922,-0.504674 1.19922,-1.804687 v -1.375 h 4.15235 4.15039 l 0.49804,-0.960938 0.4961,-0.958984 h -4.64844 -4.64844 V 56.119434 55.16045 h 4.26758 c 4.26371,0 4.26982,-0.0023 4.64062,-0.816406 0.20425,-0.448282 0.3711,-0.879265 0.3711,-0.958985 0,-0.07971 -2.0868,-0.144531 -4.63867,-0.144531 h -4.64063 v -0.960937 -0.958985 h 4.95899 4.96093 v 4.638672 4.640625 h -2.7207 -2.71875 v 0.958985 0.960937 h 2.6543 c 2.56056,0 2.71432,-0.04196 4.31054,-1.199219 l 1.65625,-1.201172 0.008,-5.359375 0.01,-5.359375 h -6.23242 -6.23437 l 0.36523,-0.800781 0.36328,-0.800781 h 5.6582 5.65625 l 0.37305,-0.814453 c 0.20425,-0.448282 0.37109,-0.879265 0.37109,-0.958985 0,-0.07971 -2.38687,-0.146484 -5.30273,-0.146484 -5.1558,0 -5.29521,-0.01625 -5.09766,-0.638672 0.18476,-0.582107 0.0584,-0.640625 -1.40625,-0.640625 z M 63.494622,44.6292 c -0.399086,0.03608 -0.788817,0.240002 -1.160156,0.611328 -0.768716,0.768717 -0.821577,1.692099 -0.136719,2.376953 0.638121,0.63811 2.175476,0.650132 2.697266,0.02149 0.585397,-0.705369 0.486899,-2.124434 -0.181641,-2.613282 -0.411091,-0.300595 -0.819651,-0.432562 -1.21875,-0.396484 z m 3,0.291016 v 0.958984 0.960938 h 4.320313 4.320312 v 6.878906 6.880859 h -0.800781 c -0.675537,0 -0.800781,0.148319 -0.800781,0.958985 0,0.837107 0.113512,0.958705 0.880859,0.947265 0.55921,-0.0083 1.376027,-0.460363 2.240234,-1.242187 l 1.359375,-1.230469 v -6.597656 c 0,-3.628048 0.121782,-6.595703 0.269532,-6.595703 0.232597,0 1.011718,-1.367125 1.011718,-1.775391 0,-0.07971 -2.880442,-0.144531 -6.40039,-0.144531 z m 39.244138,0 c -1.42413,0 -1.49134,0.046 -2.75195,1.902343 -0.71056,1.046329 -1.29297,1.982419 -1.29297,2.080079 0,0.09766 0.61333,0.176028 1.36133,0.173828 1.44642,-0.0042 1.26091,0.16527 3.55078,-3.269532 l 0.5918,-0.886718 z m 8.48242,0 1.15625,2.080078 c 1.14492,2.059874 1.17011,2.080078 2.53711,2.080078 0.75925,0 1.38086,-0.08314 1.38086,-0.183594 0,-0.100454 -0.46901,-1.034729 -1.04101,-2.076172 -1.03904,-1.891828 -1.04193,-1.892684 -2.53711,-1.896484 z m 7.3125,0 v 1.11914 1.121094 h 2.56055 2.56055 v 6.558594 6.560547 h -2.7207 -2.71875 v 1.121093 1.119141 h 8.15039 8.15234 l 0.48828,-0.943359 c 0.26851,-0.519261 0.48828,-1.024354 0.48828,-1.121094 0,-0.09674 -1.08039,-0.175781 -2.40039,-0.175781 h -2.40039 v -6.544922 -6.546875 l 2.29883,-0.09375 c 2.25942,-0.09245 2.3045,-0.112094 2.7207,-1.134766 l 0.42383,-1.039062 h -8.80273 z m 48.96094,0 V 45.8792 c 0,0.728323 0.14623,0.960938 0.60547,0.960938 0.59289,0 0.59058,0.05197 0.008,2.638671 -0.32841,1.451987 -0.60047,2.756316 -0.60547,2.898438 -0.005,0.14211 0.60357,0.214276 1.35157,0.160156 l 1.36133,-0.09766 0.61914,-2.800781 c 0.56076,-2.535072 0.6888,-2.798828 1.35937,-2.798828 0.68494,0 0.74024,0.132673 0.74024,1.769531 0,1.278163 -0.1319,1.82207 -0.47852,1.955078 -0.5032,0.193098 -0.6907,2.035156 -0.20703,2.035156 0.15069,0 0.94245,-0.510714 1.75976,-1.134765 l 1.48633,-1.134766 V 47.62529 44.920212 h -4 z m 10.87891,0 V 45.8792 c 0,0.746653 0.14284,0.960938 0.64062,0.960938 0.80945,0 0.80094,0.189169 -0.16406,3.677734 -0.94149,3.403597 -0.90421,3.041016 -0.31641,3.041016 0.4038,0 0.48047,0.71163 0.48047,4.480468 v 4.480469 h 1.66602 c 1.49017,0 1.79577,-0.125998 2.88086,-1.185547 l 1.21289,-1.183594 v -5.05664 -5.054688 h -1.59961 c -0.88,0 -1.59961,-0.07967 -1.59961,-0.177734 0,-0.09806 0.16053,-0.817686 0.35742,-1.599609 0.34331,-1.363379 0.40701,-1.421875 1.54883,-1.421875 0.96535,0 1.2614,-0.153622 1.5625,-0.814454 0.20425,-0.448269 0.37109,-0.881217 0.37109,-0.960937 0,-0.07971 -1.58353,-0.144531 -3.51953,-0.144531 z m 7.68164,0 V 45.8792 c 0,0.950287 0.0175,0.960938 1.75976,0.960938 1.35111,0 1.75977,0.111995 1.75977,0.480468 0,0.368486 -0.40866,0.478516 -1.75977,0.478516 h -1.75976 v 4.160156 4.160156 h 1.75976 c 1.46269,1e-6 1.75945,0.09515 1.75977,0.560547 3.7e-4,0.478877 -0.26614,0.547253 -1.83984,0.470703 l -1.83985,-0.08984 1.2793,1.115234 1.2793,1.117188 -1.35938,1.384765 c -0.74778,0.76192 -1.35937,1.487956 -1.35937,1.613281 0,0.125338 0.69364,0.228516 1.54297,0.228516 1.23328,0 1.69657,-0.161808 2.29687,-0.800781 0.41336,-0.44 0.88492,-0.798828 1.04883,-0.798828 0.16392,0 0.72709,0.358828 1.25,0.798828 0.76102,0.640342 1.29941,0.800781 2.70312,0.800781 h 1.75391 l -2.09766,-1.779297 c -2.00148,-1.698067 -2.09765,-1.846597 -2.09765,-3.201172 0,-1.125632 0.11169,-1.419922 0.54492,-1.419922 0.30058,0 1.0943,-0.533841 1.76172,-1.185546 l 1.21289,-1.183594 v -2.97461 -2.976562 h -1.75977 c -1.35111,0 -1.75976,-0.11003 -1.75976,-0.478516 0,-0.355136 0.37227,-0.480468 1.43164,-0.480468 1.26721,0 1.48835,-0.11129 1.92773,-0.960938 l 0.4961,-0.958984 h -4.96875 z m 16.16016,0 c -1.0311,0 -1.1211,0.07518 -1.1211,0.958984 0,0.938647 -0.0352,0.960938 -1.59961,0.960938 -1.5644,0 -1.59961,0.02032 -1.59961,0.958984 0,0.938647 0.0352,0.960937 1.59961,0.960937 h 1.59961 v 7.023438 7.025391 l 1.04102,-0.4375 1.03906,-0.4375 0.0859,-6.585938 0.0879,-6.587891 h 1.10547 c 0.90445,1e-6 1.19533,-0.175392 1.60156,-0.960937 l 0.49609,-0.958984 h -1.60937 c -1.57361,0 -1.60742,-0.02162 -1.60742,-0.960938 0,-0.883797 -0.088,-0.958984 -1.11914,-0.958984 z m 11.51953,0 c -1.32267,0 -1.43946,0.06401 -1.43946,0.798828 0,0.786647 -0.0432,0.800781 -2.56054,0.800781 h -2.56055 v 1.119141 1.121093 h 2.56055 2.56054 v 5.919922 c 0,5.706601 -0.0237,5.919922 -0.64062,5.919922 -0.49778,0 -0.64063,0.212319 -0.64063,0.958985 0,1.312886 0.79351,1.261889 2.67383,-0.173829 l 1.48633,-1.134765 v -5.517578 c 0,-4.913378 0.0704,-5.656329 0.64844,-6.785157 l 0.65039,-1.267578 -0.65039,-0.101562 c -0.44602,-0.07027 -0.64844,-0.346431 -0.64844,-0.88086 0,-0.708421 -0.12778,-0.777343 -1.43945,-0.777343 z m 7.83984,0 v 2.71875 2.720703 h -1.59961 c -1.5644,0 -1.60156,0.02227 -1.60156,0.960937 0,0.938647 0.0371,0.958985 1.60156,0.958985 0.88,0 1.59961,0.144312 1.59961,0.320312 0,0.176 -0.43043,0.320313 -0.95508,0.320313 -1.09118,0 -1.06973,-0.05244 -1.60742,4.320312 -0.19477,1.583987 -0.42978,3.275766 -0.52148,3.759766 -0.15665,0.826437 -0.0974,0.878906 0.97265,0.878906 1.26435,0 1.23701,0.05218 1.69336,-3.359375 0.25561,-1.910915 0.25841,-1.906019 0.34961,1.199219 0.0504,1.715974 0.14107,3.121094 0.20117,3.121094 0.0601,0 0.62549,-0.21513 1.25586,-0.478516 l 1.14453,-0.480469 0.0937,-2.640625 0.0937,-2.640625 0.28125,2.640625 0.28125,2.638672 h 1.07813 c 1.24775,0 1.21951,0.146348 0.75,-4 -0.57392,-5.068377 -0.53769,-4.958984 -1.60547,-4.958984 -0.52003,0 -0.94531,-0.144313 -0.94531,-0.320313 0,-0.176 0.42769,-0.320312 0.95117,-0.320312 0.73388,0 1.0646,-0.218764 1.44726,-0.958985 l 0.49805,-0.960937 h -1.44922 -1.44726 v -2.720703 -2.71875 H 225.854 Z m 4.62109,0 c -0.93982,0 -1.04778,0.103958 -1.23632,1.199218 -0.1136,0.66 -0.28802,1.607132 -0.38672,2.103516 -0.17057,0.857997 -0.12688,0.896308 0.87695,0.798828 1.02593,-0.09963 1.06636,-0.158391 1.41602,-2.101562 l 0.35937,-2 z m 5.93946,0 v 6.544922 6.544921 l -2.16016,0.0957 -2.16016,0.09375 -0.10351,1.08789 -0.10547,1.087891 2.26563,-0.208985 2.26367,-0.210937 v 1.462891 c 0,1.37111 0.0443,1.45033 0.71875,1.240234 2.02859,-0.631936 2.16015,-0.742355 2.16015,-1.826172 0,-0.585142 0.12894,-1.201941 0.28516,-1.369141 0.15622,-0.167187 0.38036,-0.627437 0.5,-1.023437 0.16102,-0.532934 0.0881,-0.720703 -0.2832,-0.720703 -0.43866,0 -0.50196,-0.800653 -0.50196,-6.398438 v -6.40039 h -1.43945 z m 26.23828,0 V 53.8792 c 0,4.927935 0.0788,8.960938 0.17383,8.960938 0.59854,0 2.70703,-1.377026 2.70703,-1.767579 0,-0.306807 0.31945,-0.472656 0.9082,-0.472656 0.62959,0 1.21907,-0.341162 1.91992,-1.111328 0.95842,-1.05319 1.01172,-1.246968 1.01172,-3.673828 0,-2.410816 -0.0497,-2.591663 -0.83984,-3.109375 l -0.83789,-0.550781 0.83789,-0.722657 c 0.79081,-0.68023 0.83984,-0.889443 0.83984,-3.617187 v -2.894531 h -3.35937 z m 7.68164,0 v 8.798828 8.800781 h 2.02734 c 1.86334,0 2.05929,-0.06581 2.40039,-0.814453 0.50293,-1.103631 0.50307,-1.105469 -0.58789,-1.105469 h -0.96093 v -3.199219 -3.201171 h 1.7871 c 1.57895,0 1.94937,-0.134064 3.19922,-1.158204 l 1.41407,-1.158203 v -3.482422 -3.480468 h -4.64063 z m 21.70703,0 0.62305,1.039062 c 0.34298,0.572 1.44614,2.588495 2.45117,4.480469 l 1.82812,3.439453 h 1.57422 c 0.86634,0 1.57617,-0.08216 1.57617,-0.183594 0,-0.101434 -1.04431,-2.116673 -2.32031,-4.478515 l -2.32031,-4.294922 -1.70508,-0.002 z m 10.29297,0 v 1.11914 1.121094 h 7.19922 7.19922 v 6.558594 c 0,5.617701 -0.0675,6.560547 -0.47852,6.560547 -0.33523,0 -0.48047,0.338885 -0.48047,1.121093 0,0.615999 0.14755,1.119141 0.32813,1.119141 0.18057,0 1.04449,-0.533945 1.91992,-1.1875 l 1.5918,-1.189453 v -7.611328 -7.611328 h -8.64063 z m -13.81445,0.0078 -1.70704,0.0078 -2.23828,4.201172 c -1.232,2.311314 -2.28895,4.324224 -2.34765,4.472656 -0.0587,0.148432 0.66094,0.268225 1.59961,0.265625 l 1.70703,-0.0059 2.24023,-4.199218 c 1.232,-2.310185 2.28701,-4.323454 2.34571,-4.47461 0.0587,-0.151139 -0.66092,-0.271778 -1.59961,-0.267578 z m -65.74219,0.3125 0.31055,2.080078 0.31054,2.080078 h 1.10156 c 0.98241,0 1.08378,-0.07871 0.92383,-0.720703 -0.0987,-0.395987 -0.27757,-1.332078 -0.39648,-2.080078 -0.2018,-1.269354 -0.28313,-1.359375 -1.23242,-1.359375 z m 11.23633,0.958985 c -0.48448,0 -0.98714,0.307197 -1.31055,0.800781 -0.48557,0.741065 -0.48557,0.858544 0,1.599609 0.32341,0.493584 0.82607,0.800781 1.31055,0.800781 0.48448,0 0.98518,-0.307197 1.30859,-0.800781 0.48557,-0.741065 0.48557,-0.858544 0,-1.599609 -0.32341,-0.493584 -0.82411,-0.800781 -1.30859,-0.800781 z m 39.19922,0.640625 h 1.91992 1.91992 v 2.71875 2.720703 H 273.854 c -1.8347,0 -1.91992,-0.03634 -1.91992,-0.800782 0,-0.714417 0.1313,-0.798828 1.22851,-0.798828 1.00606,0 1.29552,-0.147048 1.59961,-0.814453 0.51678,-1.134211 0.54944,-1.105469 -1.22852,-1.105469 -1.56427,10e-7 -1.5996,-0.02227 -1.5996,-0.960937 z M 130.17431,47.16045 c 0.6192,0 0.64062,0.212006 0.64062,6.558594 0,6.346588 -0.0214,6.560547 -0.64062,6.560547 -0.6192,0 -0.64063,-0.213959 -0.64063,-6.560547 0,-6.346588 0.0214,-6.558594 0.64063,-6.558594 z m 134.56055,0 c 0.37743,0 0.48047,0.444549 0.48047,2.080078 0,1.635542 -0.10304,2.080078 -0.48047,2.080078 -0.37744,0 -0.48047,-0.444536 -0.48047,-2.080078 0,-1.635529 0.10303,-2.080078 0.48047,-2.080078 z M 67.453607,48.439747 v 6.240234 6.240235 h 1.863281 c 1.673594,0 1.997222,-0.115669 3.199219,-1.144532 l 1.33789,-1.146484 v -5.09375 -5.095703 h -3.199219 z m 53.988283,0.599609 0.19531,1.699219 c 0.10785,0.935357 0.29308,2.88981 0.41211,4.341797 l 0.2168,2.638672 h 1.39453 c 1.12231,0 1.39004,-0.107736 1.37304,-0.558594 -0.0116,-0.308 -0.19197,-2.21626 -0.40039,-4.240234 l -0.3789,-3.679688 -1.40625,-0.101562 z m 14.60742,0.04102 -0.39648,3.417969 c -0.2186,1.880546 -0.47903,3.824897 -0.57813,4.320312 -0.1762,0.880951 -0.14906,0.900391 1.25977,0.900391 h 1.4414 l 0.38086,-3.119141 c 0.20937,-1.715974 0.46165,-3.660325 0.56055,-4.320312 l 0.17969,-1.199219 h -1.42383 z m 165.32422,0 v 0.958984 0.960938 h 6.24805 6.24804 l 0.3125,-0.822266 c 0.17162,-0.451443 0.3125,-0.882444 0.3125,-0.958984 0,-0.07654 -2.95267,-0.138672 -6.56054,-0.138672 z m -185.73438,0.386719 c -1.91184,-0.0743 -2.65926,0.03795 -3.67968,0.558593 -1.10908,0.565812 -1.87993,0.654297 -5.77149,0.654297 h -4.49414 v 0.958985 0.960937 h 5.32422 5.32227 l 2.8496,-1.519531 2.84766,-1.521484 z m 76.29493,0.251953 c 0.4692,0 0.64062,0.214128 0.64062,0.800781 0,0.75295 -0.58063,1.07171 -1.06641,0.585938 -0.47745,-0.477453 -0.19858,-1.386719 0.42579,-1.386719 z m 3.67968,0 c 0.29866,0 0.48047,0.303015 0.48047,0.800781 0,0.497779 -0.18181,0.800781 -0.48047,0.800781 -0.29867,0 -0.47851,-0.303002 -0.47851,-0.800781 0,-0.497766 0.17984,-0.800781 0.47851,-0.800781 z m 18.07813,0 c -1.04892,0 -1.29422,0.124127 -1.43555,0.720703 -0.0938,0.396 -0.58258,2.779877 -1.08594,5.296875 l -0.91601,4.576172 1.30859,-0.0957 1.30664,-0.09766 0.83203,-4.160156 c 0.45825,-2.287961 0.92866,-4.627219 1.04493,-5.199219 0.21014,-1.033674 0.20355,-1.041015 -1.05469,-1.041015 z m -11.17188,0.320312 c -0.91439,0 -0.93847,0.0431 -1.10937,2 -0.0961,1.099987 -0.2607,3.763948 -0.36524,5.919922 l -0.18945,3.919922 h 1.0918 1.09179 l 0.20508,-2.638672 c 0.11303,-1.451974 0.20607,-4.115935 0.20703,-5.919922 l 0.002,-3.28125 z m 4.3711,0 0.20703,3.28125 c 0.11323,1.803987 0.29218,4.467948 0.39844,5.919922 l 0.19335,2.638672 h 1.11915 1.11718 l -0.18164,-1.359375 c -0.1,-0.747987 -0.2646,-2.944885 -0.36719,-4.880859 -0.28814,-5.437474 -0.33142,-5.59961 -1.49804,-5.59961 z M 63.957513,50.12335 c -0.254218,-0.03871 -0.538206,-0.02395 -0.84375,0.05273 -1.561005,0.391788 -1.827195,2.813434 -0.369141,3.355469 1.367136,0.50822 2.470703,-0.277702 2.470703,-1.759766 0,-0.926284 -0.495172,-1.532305 -1.257812,-1.648437 z m 6.697265,0.236328 c 0.6084,0 0.640625,0.213698 0.640625,4.320312 0,4.106614 -0.03222,4.320313 -0.640625,4.320313 -0.608387,0 -0.640625,-0.213699 -0.640625,-4.320313 0,-4.106614 0.03224,-4.320312 0.640625,-4.320312 z m 16.166016,0.960937 c -1.561204,0 -1.614854,0.04692 -1.115234,0.980469 0.260627,0.487014 0.226373,0.619141 -0.160157,0.619141 -0.332497,0 -0.490234,0.309218 -0.490234,0.958984 0,0.950287 0.01755,0.960938 1.759766,0.960938 1.742174,0 1.759765,0.0087 1.759765,0.958984 0,0.950287 -0.01755,0.960937 -1.759765,0.960937 -1.742187,0 -1.759766,0.0087 -1.759766,0.958985 0,0.950287 0.01755,0.960937 1.759766,0.960937 H 88.5747 v 2.080078 c 0,1.143987 0.05354,2.080079 0.119141,2.080079 0.06563,0 0.785252,-0.296029 1.599609,-0.65625 1.441167,-0.637507 1.480469,-0.691133 1.480469,-2.078125 V 58.67999 h 1.269531 c 0.926847,0 1.35761,-0.166977 1.59961,-0.61914 0.584697,-1.092531 0.380595,-1.300782 -1.269532,-1.300782 -1.564374,0 -1.599609,-0.02227 -1.599609,-0.960937 0,-0.905617 0.07173,-0.958984 1.271484,-0.958984 1.081837,0 1.34458,-0.140261 1.75586,-0.935547 0.337757,-0.653178 0.375334,-0.970588 0.123047,-1.054688 -0.26545,-0.08848 -0.261645,-0.308207 0.01563,-0.826172 0.365557,-0.683061 0.328232,-0.703125 -1.240235,-0.703125 -1.415434,0 -1.665525,0.09902 -1.984375,0.798828 -0.292647,0.642314 -0.595808,0.800782 -1.541015,0.800782 -0.945207,0 -1.248356,-0.158468 -1.541016,-0.800782 -0.31057,-0.681619 -0.579723,-0.798828 -1.8125,-0.798828 z m 109.193356,0.441407 c 0.0594,0.07101 0.0628,0.407936 0.0684,1.078125 0.008,1.000582 -0.1156,1.359375 -0.46875,1.359375 -0.6,0 -0.6,-0.870354 0,-1.919922 0.22533,-0.394229 0.34096,-0.588588 0.40039,-0.517578 z m 92.27539,0.197265 -3.21679,4.201172 c -2.61089,3.408527 -3.21875,4.403044 -3.21875,5.279297 v 1.080078 h 6.04101 6.04102 l 0.39844,-0.960937 c 0.21872,-0.528 0.50603,-0.958985 0.63867,-0.958985 0.13264,0 0.32799,0.430985 0.43359,0.958985 0.18016,0.900847 0.28288,0.960937 1.67383,0.960937 1.04928,0 1.43984,-0.117233 1.33789,-0.400391 -0.0792,-0.219987 -0.48635,-1.731388 -0.90625,-3.359375 l -0.76367,-2.960937 h -1.36719 c -1.56374,0 -1.59266,0.0837 -0.86523,2.533203 0.27594,0.929292 0.44073,1.752635 0.36523,1.828125 -0.0755,0.07548 -2.23765,0.09767 -4.80469,0.04883 l -4.66797,-0.08984 2.56836,-3.199218 c 1.41236,-1.759974 2.8549,-3.596091 3.20508,-4.080078 l 0.63672,-0.88086 h -1.76562 z m -55.55078,0.0332 c -0.3591,-0.0026 -0.718,0.200438 -1.125,0.607422 -0.77041,0.77039 -0.78169,0.934375 -0.14062,1.84961 0.4918,0.702131 1.56364,0.922148 2.25781,0.464843 0.74744,-0.492394 0.81701,-1.622319 0.14063,-2.298828 -0.41294,-0.412937 -0.77371,-0.62044 -1.13282,-0.623047 z m -48.0039,0.28711 c 0.402,0 0.48047,0.67575 0.48047,4.160156 0,3.803593 -0.14293,4.552379 -0.74805,3.947266 -0.11733,-0.117332 -0.21289,-1.989515 -0.21289,-4.160157 0,-3.294761 0.0797,-3.947265 0.48047,-3.947265 z m 116.63867,0.320312 v 4.640625 4.638672 h 4.83789 4.83789 l 1.5625,-1.146484 1.5625,-1.146485 v -3.49414 -3.492188 h -6.40039 z m -109.43945,0.320313 c 0.42653,0 0.64062,0.212006 0.64062,0.638672 0,0.426653 -0.21409,0.640625 -0.64062,0.640625 -0.42667,0 -0.63868,-0.213972 -0.63868,-0.640625 0,-0.426666 0.21201,-0.638672 0.63868,-0.638672 z m 72.80078,0 c 0.3911,0 0.48047,0.532266 0.48047,2.878906 0,2.34664 -0.0894,2.880859 -0.48047,2.880859 -0.3911,0 -0.48047,-0.534219 -0.48047,-2.880859 0,-2.34664 0.0894,-2.878906 0.48047,-2.878906 z m -162.40039,0.320312 v 4.638672 4.640625 h 6.5957 6.5957 l 1.56446,-1.310547 1.56445,-1.308594 v -3.330078 -3.330078 h -8.16016 z m 68.48046,0 v 3.039063 3.041015 h 2.60743 c 2.44629,0 2.69473,-0.0657 3.99023,-1.041015 1.36742,-1.029472 1.38258,-1.05931 1.39258,-3.039063 l 0.01,-2 h -4 z m 133.75977,1.279297 h 3.35938 3.36132 v 2.720703 2.71875 h -3.36132 -3.35938 v -2.71875 z m -31.99023,0.320313 0.66796,1.679687 c 0.36815,0.923987 1.05107,2.651857 1.51563,3.839844 l 0.84375,2.160156 h 1.36133 c 1.53767,0 1.5973,-0.166526 0.74219,-2.080078 l -0.57227,-1.279297 1.08008,-2.160156 1.08008,-2.160156 h -1.27344 c -0.98893,0 -1.35763,0.158574 -1.6543,0.71289 l -0.38281,0.712891 -0.31836,-0.712891 c -0.25842,-0.579132 -0.57766,-0.71289 -1.70313,-0.71289 z M 110.49462,55.16045 h 5.2793 v 2.71875 2.720703 h -5.2793 c -4.47987,0 -5.27929,-0.07319 -5.27929,-0.480469 0,-0.405167 0.74272,-0.480468 4.76562,-0.480468 4.05055,0 4.79389,-0.07565 4.95898,-0.50586 0.10683,-0.27838 0.19532,-0.561839 0.19532,-0.630859 0,-0.06902 -2.18398,-0.166264 -4.85352,-0.214844 -3.53371,-0.06431 -4.89148,-0.197052 -4.98828,-0.488281 -0.1023,-0.30776 0.94153,-0.398438 4.52344,-0.398438 4.27503,0 4.68212,-0.05073 4.98633,-0.61914 0.18219,-0.340429 0.33203,-0.701211 0.33203,-0.800781 0,-0.09957 -2.23294,-0.181641 -4.96094,-0.181641 -3.09333,0 -4.95898,-0.120742 -4.95898,-0.320313 0,-0.20039 1.97276,-0.318359 5.27929,-0.318359 z m 64.16016,0 c 1.2495,0 1.2793,0.02581 1.2793,1.119141 0,1.093327 -0.0298,1.121093 -1.2793,1.121093 -1.2495,1e-6 -1.28125,-0.02776 -1.28125,-1.121093 0,-1.093327 0.0317,-1.119141 1.28125,-1.119141 z m -112.320314,0.638672 -0.0039,2.800781 c -0.0024,1.539987 -0.09138,3.1225 -0.197266,3.517578 l -0.193359,0.71875 1.478515,-0.546875 1.476563,-0.546875 v -2.972656 -2.970703 h -1.28125 z m 183.349614,9.998047 c -0.37937,0.01087 -0.73365,0.455289 -0.48633,0.855469 0.11826,0.191322 0.34086,0.347656 0.49609,0.347656 0.49427,0 0.72668,-0.68348 0.35742,-1.052735 -0.11036,-0.110348 -0.24073,-0.154012 -0.36718,-0.15039 z m -95.60352,0.232422 c -0.61317,0.03837 -1.20697,0.308956 -1.52539,0.794922 -0.69863,1.066233 -0.40556,1.757438 1.48828,3.501953 1.29158,1.189731 1.59242,1.657262 1.51172,2.353515 -0.071,0.612064 -0.35988,0.958247 -0.97656,1.173828 -0.72889,0.254822 -1.00878,0.179223 -1.67774,-0.449218 -0.44186,-0.415109 -0.91223,-0.644717 -1.04492,-0.511719 -0.1327,0.133002 0.16243,0.588645 0.65625,1.013672 1.15658,0.995467 2.2826,0.981071 3.30664,-0.04297 1.13205,-1.132035 0.81693,-2.186263 -1.20117,-4.009766 -1.24589,-1.125734 -1.59572,-1.645367 -1.51172,-2.240234 0.13418,-0.949971 1.34347,-1.217597 2.16016,-0.478516 0.74381,0.673136 1.13561,0.237892 0.45898,-0.509765 -0.39916,-0.441067 -1.03136,-0.634082 -1.64453,-0.595702 z m -86.626953,0.0098 c -0.40205,0 -0.478516,0.675751 -0.478516,4.160157 0,3.484393 0.07646,4.160156 0.478516,4.160156 0.377767,0 0.480468,-0.445225 0.480468,-2.09375 v -2.095703 l 2.160157,0.0957 2.160156,0.09375 0.0957,2 c 0.0524,1.099987 0.232791,2 0.400391,2 0.177337,0 0.304687,-1.739161 0.304687,-4.160156 0,-2.559974 -0.123405,-4.160157 -0.320312,-4.160157 -0.176,0 -0.320313,0.791779 -0.320313,1.759766 V 69.55892 H 66.17431 63.934075 v -1.759766 c 0,-1.351097 -0.111994,-1.759766 -0.480468,-1.759766 z m 41.125003,0 c -0.48351,0 -0.4327,0.122206 0.95312,2.306641 1.13669,1.791721 1.2763,2.2334 1.2793,4.013672 0.002,1.117961 0.14535,2 0.32422,2 0.17793,0 0.31836,-0.855854 0.31836,-1.927735 0,-1.698003 0.15384,-2.169962 1.28125,-3.955078 1.34201,-2.12489 1.46801,-2.4375 0.98437,-2.4375 -0.16244,0 -0.79739,0.804368 -1.41211,1.78711 l -1.11914,1.787109 -1.14258,-1.787109 c -0.62866,-0.982742 -1.28861,-1.78711 -1.46679,-1.78711 z m 15.35547,0 c -0.19692,0 -0.32032,1.600183 -0.32032,4.160157 0,2.559961 0.1234,4.160156 0.32032,4.160156 0.19693,0 0.32031,-1.600195 0.32031,-4.160156 0,-2.559974 -0.12338,-4.160157 -0.32031,-4.160157 z m 61.12109,0 c -0.19693,0 -0.32031,1.600183 -0.32031,4.160157 0,4.438207 0.41691,5.561611 0.74804,2.015625 0.22641,-2.424489 0.87886,-3.375 2.31641,-3.375 1.29788,0 1.73437,0.842042 1.73437,3.339843 0,1.239212 0.13831,2.179688 0.32032,2.179688 0.54226,0 0.39149,-4.556463 -0.17774,-5.369141 -0.59649,-0.8516 -2.70579,-0.996798 -3.34179,-0.230469 -0.69435,0.83663 -0.96094,0.525579 -0.96094,-1.121093 0,-0.879987 -0.14236,-1.59961 -0.31836,-1.59961 z m 24.63867,0 c -0.176,0 -0.32031,0.719623 -0.32031,1.59961 0,1.646672 -0.26465,1.957723 -0.95899,1.121093 -0.23813,-0.286915 -0.93866,-0.480468 -1.74023,-0.480468 -1.78964,0 -3.06055,1.244751 -3.06055,2.998047 0,1.509462 0.41684,2.298647 1.5293,2.902343 1.13829,0.61772 1.8032,0.612647 3.0332,-0.02344 0.69837,-0.361142 1.04736,-0.408711 1.13086,-0.158203 0.0664,0.199264 0.25273,0.361328 0.41406,0.361328 0.16274,0 0.29297,-1.852317 0.29297,-4.160156 0,-2.559974 -0.12339,-4.160157 -0.32031,-4.160157 z m 25.60156,0 c -0.176,0 -0.32031,0.505107 -0.32031,1.121094 0,0.906653 -0.12253,1.119141 -0.64062,1.119141 -0.352,0 -0.64063,0.144312 -0.64063,0.320312 0,0.176 0.28863,0.320313 0.64063,0.320313 0.5898,0 0.64062,0.21211 0.64062,2.71875 0,1.599974 0.13207,2.720703 0.32031,2.720703 0.18823,0 0.31836,-1.120729 0.31836,-2.720703 0,-2.50664 0.0508,-2.71875 0.64063,-2.71875 0.352,0 0.64062,-0.144313 0.64062,-0.320313 0,-0.176 -0.28862,-0.320312 -0.64062,-0.320312 -0.5181,0 -0.64063,-0.212488 -0.64063,-1.119141 0,-0.615987 -0.14236,-1.121094 -0.31836,-1.121094 z m 24.95899,0 c -0.19692,0 -0.32031,1.600183 -0.32031,4.160157 0,2.559961 0.12339,4.160156 0.32031,4.160156 0.19692,0 0.32031,-1.600195 0.32031,-4.160156 0,-2.559974 -0.12339,-4.160157 -0.32031,-4.160157 z m 34.40039,0 c -0.4021,0 -0.48047,0.675751 -0.48047,4.160157 v 4.160156 h 2.08008 c 1.17334,0 2.08008,-0.139801 2.08008,-0.320313 0,-0.175987 -0.71961,-0.320312 -1.59961,-0.320312 h -1.59961 V 69.8792 c 0,-3.199961 -0.0805,-3.839844 -0.48047,-3.839844 z m 5.91992,0 c -0.176,0 -0.32031,0.505107 -0.32031,1.121094 0,0.782208 -0.14524,1.119141 -0.48047,1.119141 -0.264,0 -0.47852,0.144312 -0.47852,0.320312 0,0.176 0.21452,0.320313 0.47852,0.320313 0.389,0 0.48047,0.514331 0.48047,2.71875 0,1.599974 0.13208,2.720703 0.32031,2.720703 0.18822,0 0.32031,-1.120729 0.32031,-2.720703 0,-2.50664 0.0489,-2.71875 0.63867,-2.71875 0.352,0 0.64063,-0.144313 0.64063,-0.320313 0,-0.176 -0.28863,-0.320312 -0.64063,-0.320312 -0.51795,0 -0.63867,-0.212488 -0.63867,-1.119141 0,-0.615987 -0.14431,-1.121094 -0.32031,-1.121094 z m 8.95898,0 c -0.176,0 -0.31835,0.729176 -0.31835,1.619141 0,1.608211 -0.006,1.614226 -0.7129,1.119141 -0.39104,-0.273978 -1.26511,-0.498047 -1.94335,-0.498047 -3.14874,0 -4.26247,4.175369 -1.56055,5.851562 1.07478,0.666774 1.87742,0.679134 3.08984,0.04687 0.61526,-0.320812 0.99341,-0.377064 1.06641,-0.158203 0.0622,0.186563 0.24494,0.339844 0.40625,0.339844 0.16276,0 0.29297,-1.852317 0.29297,-4.160156 0,-2.559974 -0.12339,-4.160157 -0.32032,-4.160157 z m -34.9746,0.002 c -2.53515,-0.002 -4.01857,1.124985 -4.52735,3.441407 -0.39823,1.81312 0.97752,4.344765 2.70313,4.972656 1.63398,0.594598 5.11914,-0.339209 5.11914,-1.371094 0,-0.45127 -0.15587,-0.414548 -1.35157,0.314453 -1.76232,1.07455 -4.03142,0.624009 -5.18945,-1.029297 -0.57838,-0.82574 -0.6528,-2.758656 -0.15039,-3.861328 0.81418,-1.786892 3.92083,-2.428593 5.55078,-1.146484 0.61112,0.480707 0.96716,0.579713 1.20703,0.339844 0.58113,-0.581129 -1.60167,-1.658857 -3.36132,-1.660157 z m -58.39063,0.458985 c -0.0668,0.06682 -0.37438,1.862206 -0.68359,3.990234 -0.43184,2.971993 -0.47234,3.869141 -0.16993,3.869141 0.2542,0 0.47677,-0.822976 0.62696,-2.320313 0.39706,-3.958585 0.51058,-3.987222 2.22851,-0.566406 l 1.52344,3.033203 1.50781,-3.001953 c 1.66151,-3.308226 1.76007,-3.295175 2.11133,0.269531 0.19291,1.957693 0.55417,2.949177 0.92383,2.53711 0.14488,-0.161501 -0.95794,-7.592712 -1.15625,-7.791016 -0.0913,-0.09133 -0.84509,1.275244 -1.67383,3.037109 -0.82874,1.761878 -1.61247,3.203125 -1.74219,3.203125 -0.12972,0 -0.94124,-1.436558 -1.80468,-3.191406 -0.86344,-1.75485 -1.62461,-3.135179 -1.69141,-3.068359 z m -34.83594,1.722656 c -0.26622,-0.05349 -0.4375,1.073894 -0.4375,3.097656 0,1.671987 0.12297,3.039063 0.27344,3.039063 0.15048,0 0.35834,-1.020432 0.46289,-2.267578 0.20213,-2.410937 0.57329,-3.171875 1.54297,-3.171875 0.33045,0 0.59961,-0.144313 0.59961,-0.320313 0,-0.452189 -1.06957,-0.39785 -1.57617,0.08008 -0.3392,0.32 -0.45299,0.32 -0.57032,0 -0.10661,-0.290762 -0.20618,-0.439199 -0.29492,-0.457031 z m 18.88086,0 c -0.26622,-0.05349 -0.43945,1.073894 -0.43945,3.097656 0,3.472281 0.45297,4.058092 0.74219,0.960938 0.22635,-2.423936 0.64162,-3.361328 1.49023,-3.361328 0.33542,0 0.69981,-0.144313 0.80859,-0.320313 0.28722,-0.464723 -1.23316,-0.394621 -1.73632,0.08008 -0.3392,0.32 -0.45299,0.32 -0.57032,0 -0.10661,-0.290762 -0.20618,-0.439199 -0.29492,-0.457031 z m 45.75977,0 c -0.26622,-0.05349 -0.43946,1.073894 -0.43946,3.097656 0,3.533555 0.48089,4.07455 0.71485,0.804688 0.16903,-2.362416 0.57961,-3.205078 1.56445,-3.205078 0.33045,0 0.60156,-0.144313 0.60156,-0.320313 0,-0.452189 -1.06958,-0.39785 -1.57617,0.08008 -0.3392,0.32 -0.45298,0.32 -0.57031,0 -0.10662,-0.290762 -0.20618,-0.439199 -0.29492,-0.457031 z m -77.54102,0.002 c -0.52966,0.03652 -1.06234,0.213356 -1.54687,0.552735 -0.64371,0.450848 -0.71094,0.450848 -0.71094,0 0,-0.273978 -0.14431,-0.498047 -0.32031,-0.498047 -0.19752,0 -0.32032,1.653685 -0.32032,4.320312 0,2.66664 0.1228,4.320313 0.32032,4.320313 0.176,0 0.32031,-0.81528 0.32031,-1.810547 0,-1.74942 0.0192,-1.790841 0.59961,-1.265625 0.33017,0.2988 1.11878,0.62772 1.75195,0.730469 1.01646,0.164937 1.28787,0.05014 2.32031,-0.982422 1.07058,-1.070598 1.15413,-1.285053 0.98829,-2.521485 -0.24195,-1.803759 -1.81335,-2.955262 -3.40235,-2.845703 z m -82.492185,0.04297 c -0.681402,-0.04714 -1.367542,0.109029 -1.685547,0.492187 -0.2191,0.264 -0.525238,0.480469 -0.679688,0.480469 -0.15445,0 -0.279297,-0.216469 -0.279297,-0.480469 0,-0.263987 -0.144312,-0.480468 -0.320312,-0.480468 -0.19087,0 -0.320313,1.227707 -0.320313,3.041015 0,1.671987 0.122888,3.039063 0.273438,3.039063 0.15055,0 0.364439,-0.96472 0.474609,-2.144531 0.22641,-2.424489 0.87887,-3.375 2.316407,-3.375 1.297844,0 1.734375,0.842042 1.734375,3.339843 0,1.239212 0.138312,2.179688 0.320312,2.179688 0.54227,0 0.391483,-4.556463 -0.177734,-5.369141 -0.298245,-0.425794 -0.97486,-0.675514 -1.65625,-0.722656 z m 15.359375,0 c -0.681402,-0.04714 -1.367542,0.109029 -1.685547,0.492187 -0.2191,0.264 -0.523285,0.480469 -0.677735,0.480469 -0.154437,0 -0.28125,-0.216469 -0.28125,-0.480469 0,-0.263987 -0.144312,-0.480468 -0.320312,-0.480468 -0.19087,0 -0.320313,1.227707 -0.320313,3.041015 0,3.479843 0.469307,4.078069 0.722657,0.921875 0.19294,-2.403596 0.88068,-3.402343 2.341797,-3.402343 1.297844,0 1.736328,0.842042 1.736328,3.339843 0,1.239212 0.138312,2.179688 0.320312,2.179688 0.54227,0 0.38953,-4.556463 -0.179687,-5.369141 -0.298245,-0.425794 -0.97486,-0.675514 -1.65625,-0.722656 z m 153.61719,0.002 c -1.69695,-0.04773 -3.30714,1.254209 -3.29102,3.105469 0.0109,1.251299 0.6159,2.256304 1.75391,2.916015 0.87561,0.507613 1.74461,0.473087 2.86914,-0.113281 0.61529,-0.320812 0.9935,-0.377064 1.0664,-0.158203 0.0622,0.186563 0.24492,0.339844 0.40625,0.339844 0.16134,0 0.29297,-1.367076 0.29297,-3.039063 0,-1.813308 -0.12944,-3.041015 -0.32031,-3.041015 -0.176,0 -0.32031,0.233335 -0.32031,0.517578 0,0.475725 -0.061,0.475725 -0.78711,0 -0.52754,-0.345661 -1.10427,-0.511432 -1.66992,-0.527344 z m -176.791018,0.0098 c -1.687197,0 -2.469428,0.463168 -3.023438,1.789062 -0.714867,1.710931 0.0063,3.620655 1.632813,4.324219 0.953877,0.412627 2.754354,0.07379 3.482421,-0.654297 0.90067,-0.900653 0.410681,-1.192741 -0.628906,-0.375 -0.472987,0.372064 -1.226861,0.675781 -1.675781,0.675781 -0.964637,0 -2.298828,-1.145045 -2.298828,-1.974609 0,-0.519788 0.300629,-0.585938 2.720703,-0.585938 2.470461,0 2.720703,-0.05624 2.720703,-0.615234 0,-0.3385 -0.374451,-1.058122 -0.830078,-1.599609 -0.669337,-0.795466 -1.071422,-0.984375 -2.099609,-0.984375 z m 17.648437,0 c -0.176,0 -0.320312,0.224069 -0.320312,0.498047 0,0.450848 -0.06724,0.450848 -0.710938,0 -0.812857,-0.569354 -2.55936,-0.653624 -3.466797,-0.167969 -0.786467,0.420896 -1.582031,1.953464 -1.582031,3.046875 0,0.53759 0.398051,1.245704 1.087891,1.935547 1.231534,1.231549 2.464567,1.413029 3.701171,0.546875 0.54691,-0.383068 0.808538,-0.42974 0.898438,-0.160157 0.0697,0.209076 0.258592,0.38086 0.419922,0.38086 0.16133,0 0.292969,-1.367076 0.292969,-3.039063 0,-1.813308 -0.129433,-3.041015 -0.320313,-3.041015 z m 25.599611,0 c -0.176,0 -0.31836,0.224069 -0.31836,0.498047 0,0.450848 -0.0672,0.450848 -0.71094,0 -1.52534,-1.068377 -3.80792,-0.403825 -4.7207,1.375 -0.74045,1.442979 0.26011,3.697553 1.91015,4.300781 0.90851,0.332109 1.77941,0.224456 2.54883,-0.314453 0.5469,-0.383068 0.80854,-0.42974 0.89844,-0.160157 0.0697,0.209076 0.25859,0.38086 0.41992,0.38086 0.16133,0 0.29297,-1.367076 0.29297,-3.039063 0,-1.813308 -0.12943,-3.041015 -0.32031,-3.041015 z m 7.61328,0 c -3.2119,0 -4.31694,4.390674 -1.49805,5.953125 2.39129,1.325366 5.15225,-0.75066 4.63867,-3.488282 -0.28408,-1.514246 -1.49513,-2.464843 -3.14062,-2.464843 z m 5.1875,0 c -0.19087,0 -0.32031,1.227707 -0.32031,3.041015 0,1.813321 0.12944,3.039063 0.32031,3.039063 0.17745,0 0.32031,-0.847586 0.32031,-1.902344 0,-2.266236 0.88182,-3.617187 2.36133,-3.617187 1.3301,0 1.61576,0.511147 1.74805,3.130859 0.1488,2.946687 0.6914,3.171608 0.6914,0.287109 0,-2.030284 -0.3535,-3.24401 -1.08789,-3.734375 -0.60735,-0.405526 -2.26045,-0.265459 -3.00195,0.253907 -0.64371,0.450848 -0.71094,0.450848 -0.71094,0 0,-0.273978 -0.14431,-0.498047 -0.32031,-0.498047 z m 9.85547,0 c -1.76048,0 -3.1394,1.366737 -3.125,3.095703 0.006,0.673523 0.18599,1.453171 0.40039,1.732422 0.98838,1.287296 3.17906,1.639549 4.56055,0.734375 0.74674,-0.489299 0.78906,-0.482727 0.78906,0.117187 0,0.348505 -0.29929,1.012828 -0.66406,1.476563 -0.83575,1.06247 -2.68925,1.158878 -3.9043,0.203125 -0.9747,-0.767008 -1.23635,-0.806993 -0.98438,-0.150391 0.10335,0.269312 0.56812,0.695628 1.03125,0.947266 1.32969,0.72247 3.06956,0.601505 4.10352,-0.28711 0.86828,-0.74622 0.90111,-0.88884 1.00586,-4.320312 0.0736,-2.410834 -0.004,-3.548828 -0.24024,-3.548828 -0.19158,0 -0.34765,0.216481 -0.34765,0.480468 0,0.264 -0.12679,0.480469 -0.28125,0.480469 -0.15444,0 -0.46059,-0.216469 -0.67969,-0.480469 -0.2312,-0.278576 -0.92962,-0.480468 -1.66406,-0.480468 z m 14.46484,0 c -0.41487,0 -0.4162,3.859697 -0.004,4.947265 0.17344,0.456182 0.6405,0.960973 1.03906,1.121094 1.65056,0.663094 3.24637,0.08535 3.75,-1.359375 0.42765,-1.226803 0.43938,-4.708984 0.0156,-4.708984 -0.17981,0 -0.32031,0.892559 -0.32031,2.037109 0,2.349753 -0.77624,3.722656 -2.10351,3.722656 -1.45702,0 -2.05665,-1.025986 -2.05665,-3.519531 0,-1.279987 -0.13745,-2.240234 -0.32031,-2.240234 z m 18.08399,0 c -1.5897,0 -2.37264,0.485156 -2.92969,1.818359 -0.62177,1.488086 -0.30947,2.760689 0.93359,3.806641 0.82591,0.694927 1.22188,0.811626 2.26367,0.671875 1.32615,-0.177872 2.66943,-1.198815 2.32032,-1.763672 -0.12353,-0.199888 -0.51461,-0.0225 -0.98438,0.447265 -0.84592,0.845927 -2.23766,1.01291 -3.07617,0.369141 -0.48228,-0.370288 -1.25195,-1.580798 -1.25195,-1.96875 0,-0.09957 1.29686,-0.181641 2.88086,-0.181641 2.7021,10e-7 2.8789,-0.04048 2.8789,-0.664062 0,-1.119565 -1.69432,-2.535156 -3.03515,-2.535156 z m 21.27539,0 c -0.176,0 -0.32032,0.224069 -0.32032,0.498047 0,0.450848 -0.0672,0.450848 -0.71093,0 -0.81287,-0.569354 -2.55934,-0.653624 -3.4668,-0.167969 -0.78647,0.420896 -1.58203,1.953464 -1.58203,3.046875 0,0.53759 0.39804,1.245704 1.08789,1.935547 1.23156,1.231549 2.46454,1.413029 3.70117,0.546875 0.5469,-0.383068 0.80854,-0.42974 0.89844,-0.160157 0.0697,0.209076 0.25859,0.38086 0.41992,0.38086 0.16134,0 0.29297,-1.367076 0.29297,-3.039063 0,-1.813308 -0.12944,-3.041015 -0.32031,-3.041015 z m 33.91992,0 c -0.176,0 -0.32031,0.238017 -0.32031,0.529297 0,0.49278 -0.0395,0.49278 -0.58399,0 -0.73483,-0.665016 -2.87961,-0.692654 -3.79883,-0.04883 -0.84607,0.592605 -1.49866,2.459643 -1.20117,3.435547 0.28219,0.925731 1.08591,1.846684 1.9043,2.181641 0.97559,0.399305 1.70008,0.350316 2.73633,-0.185547 0.54117,-0.279849 0.94336,-0.348293 0.94336,-0.160156 0,0.180519 0.14431,0.328125 0.32031,0.328125 0.19087,0 0.32031,-1.225742 0.32031,-3.039063 0,-1.813308 -0.12944,-3.041027 -0.32031,-3.041014 z m 17.91992,0 c -0.19088,0 -0.32031,1.227707 -0.32031,3.041015 0,1.813321 0.12943,3.039063 0.32031,3.039063 0.19087,0 0.32031,-1.225742 0.32031,-3.039063 0,-1.813308 -0.12944,-3.041015 -0.32031,-3.041015 z m 33.24024,0 c -1.618,0 -2.71248,0.727316 -3.16602,2.101562 -0.54275,1.644531 0.21525,3.361505 1.76562,3.996094 0.9736,0.398489 1.69941,0.349527 2.72657,-0.181641 1.81649,-0.939331 2.1763,-3.25517 0.76562,-4.93164 -0.66737,-0.793114 -1.07464,-0.984375 -2.09179,-0.984375 z m -41.93555,0.01758 c -1.3662,0.02212 -2.71252,0.828332 -3.00781,2.402344 -0.28588,1.523862 0.38023,2.995303 1.59765,3.52539 0.54189,0.235952 1.27496,0.435219 1.62696,0.441406 0.71988,0.01275 2.71875,-1.112022 2.71875,-1.529296 0,-0.630697 -0.40776,-0.580638 -1.125,0.136718 -1.3498,1.349786 -3.61411,0.763257 -4.14844,-1.074218 -0.20634,-0.70957 -0.16714,-0.720704 2.72656,-0.720704 h 2.9375 l -0.20703,-0.878906 c -0.36727,-1.563273 -1.75294,-2.324852 -3.11914,-2.302734 z m 22.86133,0.04492 c -0.71925,-0.07158 -1.11514,0.08805 -1.47071,0.595703 -0.6364,0.908573 -0.32377,1.678308 1.06446,2.613281 1.21796,0.820294 1.44353,1.735276 0.5625,2.291016 -0.41311,0.260575 -0.72264,0.249998 -1.18555,-0.03906 -0.36077,-0.225301 -0.704,-0.264974 -0.80859,-0.0957 -0.0997,0.161331 0.0739,0.441556 0.38476,0.623047 h 0.002 c 0.87551,0.508987 1.62479,0.410361 2.34571,-0.310547 0.93443,-0.934409 0.66195,-1.895777 -0.82031,-2.900391 -1.70081,-1.152601 -1.73155,-2.053563 -0.0684,-2.001953 1.46511,0.04544 1.46145,-0.629543 -0.006,-0.77539 z m 42.64648,0.541015 c 0.74116,-0.06936 1.50405,0.191286 2.04492,0.878907 0.89769,1.1412 0.84848,2.520546 -0.12304,3.492187 -0.49514,0.495117 -1.14995,0.785156 -1.77344,0.785156 -1.28515,0 -2.56055,-1.245783 -2.56055,-2.501953 0,-1.504946 1.17684,-2.538696 2.41211,-2.654297 z m -162.38086,0.002 c 0.72066,0.02705 1.42854,0.321782 1.86524,0.876954 0.36477,0.463722 0.66406,1.166075 0.66406,1.558593 0,0.392531 -0.29929,1.092906 -0.66406,1.556641 -0.84617,1.075715 -2.83781,1.181714 -3.81641,0.203125 -0.8425,-0.842518 -0.83689,-2.549802 0.0117,-3.460938 0.48498,-0.520558 1.2188,-0.761416 1.93945,-0.734375 z m 24.47852,0 c 0.74222,-0.05529 1.50009,0.206665 2.02734,0.876954 0.88499,1.125062 0.83502,2.103177 -0.16601,3.292968 -1.55247,1.844995 -4.29102,0.783263 -4.29102,-1.664062 0,-1.437964 1.19264,-2.413709 2.42969,-2.50586 z m 38.24804,0.0059 c 0.7261,0.03865 1.43629,0.33323 1.85938,0.871094 1.06547,1.354493 0.66668,3.240796 -0.82813,3.921875 -1.20015,0.54687 -1.98553,0.42852 -2.84375,-0.429688 -0.995,-0.995113 -1.06428,-2.775584 -0.14453,-3.695312 0.4893,-0.489301 1.23094,-0.706617 1.95703,-0.667969 z m -30.2539,0.0039 c 0.84467,0.112176 1.68012,0.653069 2.1875,1.544922 0.17339,0.30479 -0.34827,0.400391 -2.19141,0.400391 -2.57754,0 -3.00905,-0.327214 -1.83398,-1.390625 0.29616,-0.268023 0.63954,-0.440211 1.00195,-0.521485 0.27181,-0.06095 0.55438,-0.07059 0.83594,-0.0332 z m 105.94336,0.01563 c 2.22462,-0.07454 3.67598,2.554394 1.88672,4.34375 -0.432,0.432 -1.13251,0.785156 -1.55664,0.785156 -1.01129,0 -2.33278,-1.061649 -2.5879,-2.078125 -0.23329,-0.929504 0.48559,-2.542466 1.26563,-2.841797 0.3422,-0.131301 0.67437,-0.198335 0.99219,-0.208984 z m -189.556643,0.0098 c 2.248581,0 3.3028,2.714794 1.683593,4.333984 -1.659564,1.659568 -4.333984,0.367251 -4.333984,-2.09375 0,-1.055708 1.402354,-2.240234 2.650391,-2.240234 z m 25.808593,0 c 2.19709,0 3.17529,3.074734 1.41797,4.457031 -1.46905,1.155539 -3.38964,0.623481 -3.95703,-1.095703 -0.63218,-1.915474 0.46052,-3.361328 2.53906,-3.361328 z m 10.13867,0 c 1.26584,0 2.68164,1.165838 2.68164,2.208984 0,1.047116 -0.65804,2.175516 -1.49023,2.554688 -1.20028,0.54687 -1.98553,0.42852 -2.84375,-0.429688 -1.57869,-1.578668 -0.52814,-4.333984 1.65234,-4.333984 z m 66.03711,0 c 2.34235,0 3.43957,2.673735 1.7793,4.333984 -1.26601,1.266003 -3.3278,0.839893 -4.01953,-0.830078 -0.72327,-1.746111 0.40093,-3.503906 2.24023,-3.503906 z m 34.1211,0 c 1.49042,0 2.36328,0.938015 2.36328,2.537109 0,0.97656 -0.18663,1.404579 -0.8418,1.919922 -1.10452,0.868805 -2.1173,0.838235 -3.20313,-0.0957 -1.85983,-1.599859 -0.79516,-4.361328 1.68165,-4.361328 z m 25.60156,0 c 2.39683,0 3.5572,2.738679 1.83594,4.333984 -1.10058,1.020061 -2.46786,1.020413 -3.48829,0 -1.57856,-1.578668 -0.52814,-4.333984 1.65235,-4.333984 z m -176.703127,0.002 c 0.643893,0.0187 1.287539,0.266819 1.730469,0.738281 0.382667,0.407344 0.695312,0.838341 0.695312,0.958984 0,0.120656 -1.080404,0.220704 -2.400391,0.220704 -2.533761,0 -2.826612,-0.214402 -1.759765,-1.28125 0.445652,-0.445665 1.090469,-0.655423 1.734375,-0.636719 z m 162.517577,0.04297 c 1.26122,-0.18656 2.78906,0.469147 2.78906,1.5 0,0.250694 -0.74188,0.375 -2.24023,0.375 -2.39395,0 -2.8088,-0.347592 -1.65625,-1.390625 0.29477,-0.266759 0.68701,-0.422189 1.10742,-0.484375 z M 18.469232,70.531544 c -0.0084,-0.04997 1.94e-4,0.101674 0,0.152344 0.007,0.01435 0.0109,0.03038 0.01758,0.04492 -0.0056,-0.06574 -0.0068,-0.133245 -0.01758,-0.197264 z m 269.517578,2.740234 c -0.14634,-0.09045 -0.50478,0.332955 -0.79492,0.941406 -0.29016,0.60846 -0.38935,1.107422 -0.22071,1.107422 0.42656,0 1.34222,-1.846995 1.01563,-2.048828 z m -3.36914,0.128906 c -0.59451,0 -0.95324,0.521318 -0.67188,0.976563 0.28945,0.468339 0.92809,0.199338 1.05274,-0.443359 0.0599,-0.308663 -0.1005,-0.533204 -0.38086,-0.533204 z"
       transform="translate(6.5386541,-7.3223285)" />
    <path
       id="rect289"
       style="fill:none;stroke-width:11.3386;stroke-dashoffset:113.386"
       d="m 44.109903,12.309615 c -0.659565,0 -1.191406,0.531841 -1.191406,1.191407 v 15.144531 c 0,0.659564 0.531841,1.189453 1.191406,1.189453 h 5.443359 c 0.01051,-0.06698 0.02074,-0.133916 0.0332,-0.201172 0.02152,-0.116178 0.03639,-0.235163 0.07813,-0.345703 0.08656,-0.229292 0.111339,-0.519897 0.306641,-0.667969 0.498806,-0.37818 1.119343,-0.558888 1.679687,-0.83789 0.8629,0.619171 1.855769,1.091193 2.59375,1.853515 0.434556,-0.300749 0.900678,-0.554858 1.34961,-0.833984 0.697206,0.322357 1.529351,0.441571 2.089844,0.966797 0.02208,0.02069 0.03997,0.04456 0.06055,0.06641 h 4.8125 c 0.659566,0 1.191407,-0.529889 1.191407,-1.189453 V 13.501022 c 0,-0.659566 -0.531841,-1.191407 -1.191407,-1.191407 z" />
    <rect
       style="fill:none;stroke-width:11.3386;stroke-dashoffset:113.386"
       id="rect480"
       width="29.761345"
       height="38.714188"
       x="19.564571"
       y="33.004272"
       ry="1.1905522" />
    <rect
       style="fill:none;stroke-width:11.3386;stroke-dashoffset:113.386"
       id="rect482"
       width="33.402981"
       height="41.543056"
       x="19.788952"
       y="29.409176"
       ry="1.1905522" />
    <rect
       style="fill:none;stroke-width:11.3386;stroke-dashoffset:113.386"
       id="rect487"
       width="27.908949"
       height="41.54306"
       x="19.142401"
       y="28.637135"
       ry="1.1905522" />
    <rect
       style="fill:none;stroke-width:11.3386;stroke-dashoffset:113.386"
       id="rect752"
       width="27.22583"
       height="37.570667"
       x="18.731033"
       y="32.903717"
       ry="5.0141869"
       inkscape:export-filename="../../../../tmp/rect752.svg"
       inkscape:export-xdpi="101.30139"
       inkscape:export-ydpi="101.30139" />
  </g>
</svg>
